<svg id="Layer_1" data-name="Layer 1" xmlns="http://www.w3.org/2000/svg" viewBox="0 0 12 12"><defs><style>.cls-1{fill:#544337;}</style></defs><title>box_empty</title><path class="cls-1" d="M9.01035.25a2.74272,2.74272,0,0,1,2.73975,2.73956V9.01044A2.74272,2.74272,0,0,1,9.01035,11.75H2.9896A2.74267,2.74267,0,0,1,.25009,9.01044V2.98956A2.74267,2.74267,0,0,1,2.9896.25H9.01035m0-.25H2.9896A2.98951,2.98951,0,0,0,.00009,2.98956V9.01044A2.98951,2.98951,0,0,0,2.9896,12H9.01035a2.98972,2.98972,0,0,0,2.98975-2.98956V2.98956A2.98972,2.98972,0,0,0,9.01035,0Z"/></svg>